<svg width="26" height="30" viewBox="0 0 26 30" fill="none" xmlns="http://www.w3.org/2000/svg">
<path d="M0.509766 7.78867L13.0001 0.57735L25.4905 7.78867V22.2113L13.0001 29.4227L0.509766 22.2113V7.78867Z" stroke="#9F6B08"/>
<path d="M7.64645 14.6464C7.45118 14.8417 7.45118 15.1583 7.64645 15.3536L10.8284 18.5355C11.0237 18.7308 11.3403 18.7308 11.5355 18.5355C11.7308 18.3403 11.7308 18.0237 11.5355 17.8284L8.70711 15L11.5355 12.1716C11.7308 11.9763 11.7308 11.6597 11.5355 11.4645C11.3403 11.2692 11.0237 11.2692 10.8284 11.4645L7.64645 14.6464ZM18 14.5L8 14.5V15.5L18 15.5V14.5Z" fill="#9F6B08"/>
</svg>
